/* XPM */
static char *result[] = {
/* columns rows colors chars-per-pixel */
"32 32 6 1 ",
"  c #3E734E",
". c #7AB055",
"X c #4D9262",
"o c #5B6EE1",
"O c #639BFF",
"+ c #5FCDE4",
/* pixels */
"XXXXXXXXXXXXXXX o++ooOOOOOOOOOOO",
"XXXXXXXXXXXXXXX o++ooOOOOOOOOOOO",
"XXXXXXXXXXXXXXXX o++ooOOOOOOOOOO",
"XXXXXXXXXXXXXXXX o++ooOOOOOOOOOO",
"XXXXXXXXXXXXXXXX o++ooOOOOOOOOOO",
"XXXXXXXXXXXXXXX o++ooOOOOOOOOOOO",
"XXXXXXXXXXXXXXXX o++ooOOOOOOOOOO",
"XXXXXXX.XXXXXXXX o++ooOOOOOOOOOO",
"XXXXXXX.XXXXXXXXX o+ooOOOOOOOOOO",
"XXXXXXX.X.XXXXXX o++ooOOOOOOOOOO",
"XXXXXXXXX.XXXXX o++ooOOOOOOOOOOO",
"XXXXXXXXXXXXXXX o++ooOOOOOOOOOOO",
"XXXXXXXXXXXXXXX o+ooOOOOOOOOOOOO",
"XXXXXXXXXXXXXX o++ooOOOOOOOOOOOO",
"XXXXXXXXXXXXXXXo+++ooOOOOOOOOOOO",
"    XXX      XX o++ooOOOOOOOOOOO",
"oooo   oooooo  oo++ooOOOOOOOOOOO",
"++++ooo++++++oo++++ooOOOOOOOOOOO",
"++++++++++++++++++oooOOOOOOOOOOO",
"oooo++++oooo+oooooooOOOOOOOOOOOO",
"ooooooooooooooooooOOOOOOOOOOOOOO",
"OOOOooooOOOOoOOOOOOOOOOOOOOOOOOO",
"OOOOOOOOOOOOOOOOOOOOOOOOOOOOOOOO",
"OOOOOOOOOOOOOOOOOOOOOOOOOOOOOOOO",
"OOOOOOOOOOOOOOOOOOOOOOOOOOOOOOOO",
"OOOOOOOOOOOOOOOOOOOOOOOOOOOOOOOO",
"OOOOOOOOOOOOOOOOOOOOOOOOOOOOOOOO",
"OOOOOOOOOOOOOOOOOOOOOOOOOOOOOOOO",
"OOOOOOOOOOOOOOOOOOOOOOOOOOOOOOOO",
"OOOOOOOOOOOOOOOOOOOOOOOOOOOOOOOO",
"OOOOOOOOOOOOOOOOOOOOOOOOOOOOOOOO",
"OOOOOOOOOOOOOOOOOOOOOOOOOOOOOOOO"
};
