/* XPM */
static char *result[] = {
/* columns rows colors chars-per-pixel */
"32 32 6 1 ",
"  c #3E734E",
". c #7AB055",
"X c #4D9262",
"o c #5B6EE1",
"O c #639BFF",
"+ c #5FCDE4",
/* pixels */
"OOOOOOOOOOOoo++o XXXXXXXXXXXXXXX",
"OOOOOOOOOOOoo++o XXXXXXXXXXXXXXX",
"OOOOOOOOOOOoo++o XXXXXXXXXXXXXXX",
"OOOOOOOOOOOoo++o XXXXXXXXXXXXXXX",
"OOOOOOOOOOoo++o XXXXXXXXXXXXXXXX",
"OOOOOOOOOOoo++o XXXXXXXXXXXXXXXX",
"OOOOOOOOOOoo++o XXXXXXXXXXXXXXXX",
"OOOOOOOOOOoo+++o XXXXXXXXXXXXXXX",
"OOOOOOOOOOOoo++o XXXXXXXX.XXXXXX",
"OOOOOOOOOOOoo++o XXXXXXXX.XXXXXX",
"OOOOOOOOOOOoo++o XXXXXX.X.XXXXXX",
"OOOOOOOOOOOoo++o XXXXXX.X.XXXXXX",
"OOOOOOOOOOoo+++o XXXXXX.XXXXXXXX",
"OOOOOOOOOOOoo+o XXXXXXXXXXXXXXXX",
"OOOOOOOOOOOoo+o XX XXXXXXXXXXXXX",
"OOOOOOOOOOOoo++o oo   XXXX XXX  ",
"OOOOOOOOOOOoo++oo++ooo X  o   oo",
"OOOOOOOOOOOoo+++++++++o oo+ooo++",
"OOOOOOOOOOOOoo++++oo+++o++++++++",
"OOOOOOOOOOOOoooooooooo++++o+++oo",
"OOOOOOOOOOOOOoooooOOoooooooooooo",
"OOOOOOOOOOOOOOOOOOOOOOooooOoooOO",
"OOOOOOOOOOOOOOOOOOOOOOOOOOOOOOOO",
"OOOOOOOOOOOOOOOOOOOOOOOOOOOOOOOO",
"OOOOOOOOOOOOOOOOOOOOOOOOOOOOOOOO",
"OOOOOOOOOOOOOOOOOOOOOOOOOOOOOOOO",
"OOOOOOOOOOOOOOOOOOOOOOOOOOOOOOOO",
"OOOOOOOOOOOOOOOOOOOOOOOOOOOOOOOO",
"OOOOOOOOOOOOOOOOOOOOOOOOOOOOOOOO",
"OOOOOOOOOOOOOOOOOOOOOOOOOOOOOOOO",
"OOOOOOOOOOOOOOOOOOOOOOOOOOOOOOOO",
"OOOOOOOOOOOOOOOOOOOOOOOOOOOOOOOO"
};
