/* XPM */
static char *result[] = {
/* columns rows colors chars-per-pixel */
"32 32 5 1 ",
"  c #3E734E",
". c #7AB055",
"X c #4D9262",
"o c #8B9BB3",
"O c #C0CBDC",
/* pixels */
"XXXXXXXXXXXXXXXXXXXXXXXXXXXXXXXX",
"XXXXXXXXXXXXXXXXXXXXXX XXXXXXXXX",
"XXXXXXXXXXXXXXXXXXXXX X XXXXXXXX",
"XXXXXXXXXXXXXXXOOXXXXX XXXXXXXXX",
"XXXXXXXXXXXXXXOOOOXXXXXXXXXXXXXX",
"XXXXXXXXXXXXXOOooOOXXXXXXXXXXXXX",
"XXXXXXXXXXXXOOooooOOXXXXXXXXXXXX",
"XXXXXXXXXXXOOooooooOOXXXXXXXXXXX",
"XXXXXX.XXXOOooooooooOOXXXXXXXXXX",
"XXXXXX.XXOOooooooooooOOXXXXXXXXX",
"XXXXXX.XOOooooooooooooOOXXXXXXXX",
"XXXXXX.OOooooooooooooooOOXXXXXXX",
"XXXXXXOOooooooooooooooooOOXXXXXX",
"XXXXXOOoooooooOooOoooooooOOXXXXX",
"XXXXOOoooooooOooooOoooooooOOXXXX",
".XXOOoooooooOooooooOoooooooOOXXX",
"X.XOOoooooooOooooooOoooooooOOXX.",
".XXXOOoooooooOooooOoooooooOOXXXX",
"XXXXXOOoooooooOooOoooooooOOXXXXX",
"XXXXXXOOooooooooooooooooOOXXXXXX",
"XXXXXXXOOooooooooooooooOOXXXXXXX",
"XXXXXXXXOOooooooooooooOOXXXXXXXX",
"XXXXXXXXXOOooooooooooOOXXXXXXXXX",
"XXXXXXXXXXOOooooooooOOXXXXXXXXXX",
"XXXXXXXXXXXOOooooooOOXXXX.XXXXXX",
"XXXXXXXXXXXXOOooooOOXXX.X.XXXXXX",
"XXXXXXXXXXXXXOOooOOXXXX.X.XXXXXX",
"XXXXXXXXXXXXXXOOOOXXXXX.XXXXXXXX",
"XXXXXXXXXXXXXXXOOXXXXXXXXXXXXXXX",
"XXXXXXXXXXXXX.XXXXXXXXXXXXXXXXXX",
"XXXXXXXXXXXX.X.XXXXXXXXXXXXXXXXX",
"XXXXXXXXXXXXX.XXXXXXXXXXXXXXXXXX"
};
