/* XPM */
static char *result[] = {
/* columns rows colors chars-per-pixel */
"32 32 3 1 ",
"  c #8B9BB3",
". c #C0CBDC",
"X c None",
/* pixels */
"XXXXXXXXXXXXXXXXXXXXXXXXXXXXXXXX",
"XXXXXXXXXXXXXXXXXXXXXXXXXXXXXXXX",
"XXXXXXXXXXXXXXXXXXXXXXXXXXXXXXXX",
"XXXXXXXXXXXXXXXXXXXXXXXXXXXXXXXX",
"XXXXXXXXXXXXXXXXXXXXXXXXXXXXXXXX",
"XXXXXXXXXXXXXXXXXXXXXXXXXXXXXXXX",
"XXXXXXXXXXXXXXX..XXXXXXXXXXXXXXX",
"XXXXXXXXXXXXXX....XXXXXXXXXXXXXX",
"XXXXXXXXXXXXX..  ..XXXXXXXXXXXXX",
"XXXXXXXXXXXX..    ..XXXXXXXXXXXX",
"XXXXXXXXXXX..      ..XXXXXXXXXXX",
"XXXXXXXXXX..        ..XXXXXXXXXX",
"XXXXXXXXX..          ..XXXXXXXXX",
"XXXXXXXX..            ..XXXXXXXX",
"XXXXXXX..              ..XXXXXXX",
"XXXXXX..                ..XXXXXX",
"XXXXX..       .  .       ..XXXXX",
"XXXX..       .    .       ..XXXX",
"XXX..       .      .       ..XXX",
"XXX..       .      .       ..XXX",
"XXXX..       .    .       ..XXXX",
"XXXXX..       .  .       ..XXXXX",
"XXXXXX..                ..XXXXXX",
"XXXXXXX..              ..XXXXXXX",
"XXXXXXXX..            ..XXXXXXXX",
"XXXXXXXXX..          ..XXXXXXXXX",
"XXXXXXXXXX..        ..XXXXXXXXXX",
"XXXXXXXXXXX..      ..XXXXXXXXXXX",
"XXXXXXXXXXXX..    ..XXXXXXXXXXXX",
"XXXXXXXXXXXXX..  ..XXXXXXXXXXXXX",
"XXXXXXXXXXXXXX....XXXXXXXXXXXXXX",
"XXXXXXXXXXXXXXX..XXXXXXXXXXXXXXX"
};
