/* XPM */
static char *result[] = {
/* columns rows colors chars-per-pixel */
"32 32 6 1 ",
"  c #3A4466",
". c #5A6988",
"X c #8B9BB4",
"o c #C0CBDC",
"O c white",
"+ c None",
/* pixels */
"++++++++++++++++++++++++++++++++",
"++++++++++++++++++++++++++++++++",
"++++++++++++++++++++++++++++++++",
"++++++++++++++++++++++++++++++++",
"++++++++++++++++++++++++++++++++",
"++++++++++++++++++++++++++++++++",
"++++++++++++++++++++++++++++++++",
"++++++++++++++++++++++++++++++++",
"++++++++++++++++++++++++++++++++",
"++++++++++++++++++++++++++++++++",
"++++++++++++++++++++++++++++++++",
"++++++++++++++++++++++++++++++++",
"++++++++++++++++++++++++++++++++",
"+++++++++++++oooooo+++++++++++++",
"+++++++++++ooOooXXXXX+++++++++++",
"+++++++++++oOoXXXXXXX+++++++++++",
"++++++++++XXoooXXXXXXX++++++++++",
"++++++++++XXXooooo.XXX++++++++++",
"+++++++++XXX........XXX+++++++++",
"+++++++++X............X+++++++++",
"+++++++++X........... X+++++++++",
"+++++++++X..........  X+++++++++",
"+++++++++..........    +++++++++",
"++++++++++........    ++++++++++",
"++++++++++++  .     ++++++++++++",
"++++++++++++++++++++++++++++++++",
"++++++++++++++++++++++++++++++++",
"++++++++++++++++++++++++++++++++",
"++++++++++++++++++++++++++++++++",
"++++++++++++++++++++++++++++++++",
"++++++++++++++++++++++++++++++++",
"++++++++++++++++++++++++++++++++"
};
