/* XPM */
static char *result[] = {
/* columns rows colors chars-per-pixel */
"32 32 7 1 ",
"  c #181425",
". c #3A4466",
"X c #5A6988",
"o c #8B9BB4",
"O c #C0CBDC",
"+ c white",
"@ c None",
/* pixels */
"@@@@@@@@@@@@@@@@@@@@@@@@@@@@@@@@",
"@@@@@@@@@@@@@@@@@@@@@@@@@@@@@@@@",
"@@@@@@@@@@@@@@@@@@@@@@@@@@@@@@@@",
"@@@@@@@@@@@@@@@@@@@@@@@@@@@@@@@@",
"@@@@@@@@@@@@@@@@@@@@@@@@@@@@@@@@",
"@@@@@@@@@@@@@@@@@@@@@@@@@@@@@@@@",
"@@@@@@@@@@@@@@@@@@@@@@@@@@@@@@@@",
"@@@@@@@@@@@@@@@@@@@@@@@@@@@@@@@@",
"@@@@@@@@@@@@@@@@@@@@@@@@@@@@@@@@",
"@@@@@@@@@@@@@@@@@@@@@@@@@@@@@@@@",
"@@@@@@@@@@@@@@@@@@@@@@@@@@@@@@@@",
"@@@@@@@@@@@@@@@@@@@@@@@@@@@@@@@@",
"@@@@@@@@@@@@@@@@@@@@@@@@@@@@@@@@",
"@@@@@@@@@@@@O++OOO@@@@@@@@@@@@@@",
"@@@@@@@@@@O+OOOoooooo@@@@@@@@@@@",
"@@@@@@@@@@OOOoooooooo@@@@@@@@@@@",
"@@@@@@@@@ooOOOooOOoooo@@@@@@@@@@",
"@@@@@@@@@o+.oooooooooo@@@@@@@@@@",
"@@@@@@@@oo. XXXXXXXXooo@@@@@@@@@",
"@@@@@@@@oXXXXXXXXXXXX.o@@@@@@@@@",
"@@@@@@@@oXXXXXXXXXXXX.o@@@@@@@@@",
"@@@@@@@@XXXXXXXXXXXX...@@@@@@@@@",
"@@@@@@@@@XXXXXXXXX....@@@@@@@@@@",
"@@@@@@@@@@@..X......@@@@@@@@@@@@",
"@@@@@@@@@@@@@@@@@@@@@@@@@@@@@@@@",
"@@@@@@@@@@@@@@@@@@@@@@@@@@@@@@@@",
"@@@@@@@@@@@@@@@@@@@@@@@@@@@@@@@@",
"@@@@@@@@@@@@@@@@@@@@@@@@@@@@@@@@",
"@@@@@@@@@@@@@@@@@@@@@@@@@@@@@@@@",
"@@@@@@@@@@@@@@@@@@@@@@@@@@@@@@@@",
"@@@@@@@@@@@@@@@@@@@@@@@@@@@@@@@@",
"@@@@@@@@@@@@@@@@@@@@@@@@@@@@@@@@"
};
