/* XPM */
static char *result[] = {
/* columns rows colors chars-per-pixel */
"32 32 4 1 ",
"  c #3E734E",
". c #3F744F",
"X c #7AB055",
"o c #4D9262",
/* pixels */
"................................",
".ooooooooooooooooooooo oooooooo.",
".oooooooooooooooooooo o ooooooo.",
".ooooooooooooooooooooo oooooooo.",
".oooooooooooooooooooooooooooooo.",
".oooooooooooooooooooooooooooooo.",
".ooooooooooooooooXooooooooooooo.",
".ooooooooooooooooXXoooooooooooo.",
".oooooXooooooooooXXooXooooooooo.",
".oooooXoooooooooooX XXooooooooo.",
".oooooXoXooooooooo XX ooooooooo.",
".oooooXoXoooooooooo  oooooooooo.",
".oooooooXoooooooooooooooooooooo.",
".oooooooooooooooooooooooooooooo.",
".oooooooooooooooooooooooooooooo.",
".oooooooooooooooooooooooooooooo.",
".Xooooooooooooooooooooooooooooo.",
".oooooooooooooooooooooooooooooo.",
".oooooooooooooooooooooooooooooo.",
".oooooooooooooooooooooooooooooo.",
".oooooooooooooooooooooooooooooo.",
".ooooooooo oooooooooooooooooooo.",
".oooooooo o ooooooooooooooooooo.",
".ooooooooo oooooooooooooooooooo.",
".ooooooooooooooooooooooooXooooo.",
".ooooooooooooooooooooooXoXooooo.",
".ooooooooooooooooooooooXoXooooo.",
".ooooooooooooooooooooooXooooooo.",
".oooooooooooooooooooooooooooooo.",
".ooooooooooooXooooooooooooooooo.",
".oooooooooooXoXoooooooooooooooo.",
"................................"
};
