/* XPM */
static char *result[] = {
/* columns rows colors chars-per-pixel */
"32 32 6 1 ",
"  c #3E734E",
". c #7AB055",
"X c #4D9262",
"o c #5B6EE1",
"O c #639BFF",
"+ c #5FCDE4",
/* pixels */
"OOOOOOOOOOOoo++o XXXXXXXXXXXXXXX",
"OOOOOOOOOOOoo++o XXXXXXXXXXXXXXX",
"OOOOOOOOOOOoo++o XXXXXXXXXXXXXXX",
"OOOOOOOOOOOoo++o XXXXXXXXXXXXXXX",
"OOOOOOOOOOoo++o XXXXXXXXXXXXXXXX",
"OOOOOOOOOOoo++o XXXXXXX XXXXXXXX",
"OOOOOOOOOOoo++o XXXXXX X XXXXXXX",
"OOOOOOOOOOoo+++o XXXXXX XXXXXXXX",
"OOOOOOOOOOOoo++o XXXXXXXXXXXXXXX",
"OOOOOOOOOOOoo++o XXXXXXXXXXXXXXX",
"OOOOOOOOOOOoo++o XXXXXXXXXXX.XXX",
"OOOOOOOOOOOoo++o XXXXXXXXXX..XXX",
"OOOOOOOOOOoo+++o XXXXXXX.XX..XXX",
"OOOOOOOOOOOoo+o XXXXXXXX.. .XXXX",
"OOOOOOOOOOOoo+o XXXXXXXX .. XXXX",
"OOOOOOOOOOOoo++o XXXXXXXX  XXXXX",
"OOOOOOOOOOOoo++o XXXXXXXXXXXXXXX",
"OOOOOOOOOOOoo+++o XXXXXXXXXXXXXX",
"OOOOOOOOOOOOoo++o XXXXXXXXXXXXXX",
"OOOOOOOOOOOOoo+o XXXXXXXXXXXXXXX",
"OOOOOOOOOOOoo++o XXXXXXXXXXXXXXX",
"OOOOOOOOOOOoo++o XXXXXXXXXXXXXXX",
"OOOOOOOOOOoo++o XXXXXX.XXXXXXXXX",
"OOOOOOOOOOoo+o XXXXXXX.XXXXXXXXX",
"OOOOOOOOOOoo++o XXXX.X.XXXXXXXXX",
"OOOOOOOOOOoo++o XXXX.X.XXXXXXXXX",
"OOOOOOOOOOOoo++o XXX.XXXXXXXXXXX",
"OOOOOOOOOOoo++o XXXXXXXXXXXXXXXX",
"OOOOOOOOOOoo++o XXXXXXXXXXXXXXXX",
"OOOOOOOOOOoo++o XXXXXXXXXXXXXXXX",
"OOOOOOOOOOOoo++o XXXXXXXXXXXXXXX",
"OOOOOOOOOOOoo++o XXXXXXXXXXXXXXX"
};
