/* XPM */
static char *result[] = {
/* columns rows colors chars-per-pixel */
"32 32 4 1 ",
"  c #3E734E",
". c #7AB055",
"X c #4D9262",
"o c None",
/* pixels */
"o  XX..X.XX....XXXXXXXXX X  X  o",
"o   XX..XX......XXXXXXX X      o",
"     XXXXXX...XXXXXXX          o",
"         XXXX      XXXXXXXXXX   ",
"   XXXXXXXXX XX..XX XXXX.XXXX   ",
" XX.X XXXXX XX...XXX ...XXX     ",
" ..X.X   X X...X.XXXX XXX       ",
" ...XX    X.....X.XXXX X   XX   ",
" ....XX   X....X.XXXXX   XXXXX  ",
" X.....X X....X.X.XXX   .X..XX  ",
" XX.... XX.X...X.XXXXX   ..XXX  ",
"o XX... XXX.X.X.XXXXXXX  XXX    ",
"oo   XX X.XX.XXXXXXXX    X     o",
"ooo    X... XXXXXXX           oo",
"oooo   XX...       XXX       ooo",
"oooooo X...XXXXXXXXXXXX     oooo",
"ooooo X..X.X.XX....... X   ooooo",
"oooo XX...XXXX....... X X   oooo",
"oooo X.....X.XXX.X.X X X   ooooo",
"oooo XXXX..XXXXXX.X X X X  ooooo",
"ooo XXXX X XXXXXXXXXXXXX   ooooo",
"ooo X.XXX X X XXXXXXXXX X   oooo",
"ooo .X.XXX X X X XXXXXXX     ooo",
"ooo ..X.XXX     X XXXXXXXX   ooo",
"ooo ...X.XXX     XXXXXXXXX   ooo",
"ooo X...X.XXXXXXX XXXXXX XX   oo",
"ooo  X...X.XXXXX.....XX  X    oo",
"oo    X X.XXXX          X X    o",
"o X..  X X XXXXX       X X X   o",
"o ...      XXXXXXX   XX X X    o",
"o .....XXXXXXXXXXXXXXXXX X     o",
"o  X..X.XXXXXXXXXXXXXXXXX X    o"
};
