/* XPM */
static char *_625230663429[] = {
/* columns rows colors chars-per-pixel */
"32 32 6 1 ",
"  c #262B44",
". c #124E89",
"X c #0095E9",
"o c #2CE8F5",
"O c white",
"+ c None",
/* pixels */
"++++++++++++++++++++++++++++++++",
"++++++++++++++++++++++++++++++++",
"++++++++++++++++++++++++++++++++",
"++++++++++++++++++++++++++++++++",
"++++++++++++++++++++++++++++++++",
"++++++++++++++++++++++++++++++++",
"++++++++++++++++++++++++++++++++",
"++++++++++++++++++++++++++++++++",
"++++++++++++++++++++++++++++++++",
"++++++++++++++++++++++++++++++++",
"++++++++++++++++++++++++++++++++",
"++++++++++++++++++++++++++++++++",
"++++++++++++++++++++++++++++++++",
"++++++++++++++++++++++++++++++++",
"++++++++++++++++++++++++++++++++",
"++++++++++++++++++++++++++++++++",
"+++++++++++++oooooo+++++++++++++",
"++++++++++++oooooooo++++++++++++",
"+++++++++++oooooXXXXo+++++++++++",
"+++++++++++ooXOXXOXXX+++++++++++",
"+++++++++++oX. .. XX.+++++++++++",
"+++++++++++.XX.....X.+++++++++++",
"++++++++++++........++++++++++++",
"+++++++++++++......+++++++++++++",
"++++++++++++++++++++++++++++++++",
"++++++++++++++++++++++++++++++++",
"++++++++++++++++++++++++++++++++",
"++++++++++++++++++++++++++++++++",
"++++++++++++++++++++++++++++++++",
"++++++++++++++++++++++++++++++++",
"++++++++++++++++++++++++++++++++",
"++++++++++++++++++++++++++++++++"
};
