/* XPM */
static char *result[] = {
/* columns rows colors chars-per-pixel */
"32 32 6 1 ",
"  c #3E734E",
". c #7AB055",
"X c #4D9262",
"o c #5B6EE1",
"O c #639BFF",
"+ c #5FCDE4",
/* pixels */
"XXXXXXXXXXXXXXX o++ooOOOOOOOOOOO",
"XXXXXXXX XXXXXX o++ooOOOOOOOOOOO",
"XXXXXXX X XXXXXX o++ooOOOOOOOOOO",
"XXXXXXXX XXXXXXX o++ooOOOOOOOOOO",
"XXXXXXXXXXXXXXXX o++ooOOOOOOOOOO",
"XXXXXXXXXXXXXXX o++ooOOOOOOOOOOO",
"XXXXXXXXXXXXX.XX o++ooOOOOOOOOOO",
"XXXXXXXXXXXX..XX o++ooOOOOOOOOOO",
"XXXXXXXXX.XX..XXX o+ooOOOOOOOOOO",
"XXXXXXXXX.. .XXX o++ooOOOOOOOOOO",
"XXXXXXXXX .. XX o++ooOOOOOOOOOOO",
"XXXXXXXXXX  XXX o++ooOOOOOOOOOOO",
"XXXXXXXXXXXXXXX o+ooOOOOOOOOOOOO",
"XXXXXXXXXXXXXX o++ooOOOOOOOOOOOO",
"XXXXXXXXXXXXXX o+++ooOOOOOOOOOOO",
".XXXXXXXX.XXXXX o++ooOOOOOOOOOOO",
"X.XXXXXXX.XXXXX o++ooOOOOOOOOOOO",
".XXXXXX.X.XXXXXX o+ooOOOOOOOOOOO",
"XXXXXXX.X.XXXXXX o+ooOOOOOOOOOOO",
"XXXXXXX.XXXXXXX o+++ooOOOOOOOOOO",
"XXXXXXXXXXXXXXX o++ooOOOOOOOOOOO",
"XXXXXXXXXXXXXXX o++ooOOOOOOOOOOO",
"XXXXXXXXXXXXXXX o++ooOOOOOOOOOOO",
"XXXXXXXXXXXXXXX o++ooOOOOOOOOOOO",
"XXXXXXXXXXXXXXX o+++ooOOOOOOOOOO",
"XXXXXXXXXXXXXXXX o++ooOOOOOOOOOO",
"XXXXXXXXXXXXXXXX o++ooOOOOOOOOOO",
"XXXXXXXXXXXXXXXX o++ooOOOOOOOOOO",
"XXXXXXXXXXXXXXX o++ooOOOOOOOOOOO",
"XXXXXXXXXXXXXXX o++ooOOOOOOOOOOO",
"XXXXXXXXXXXXXXX o++ooOOOOOOOOOOO",
"XXXXXXXXXXXXXXX o++ooOOOOOOOOOOO"
};
