/* XPM */
static char *result[] = {
/* columns rows colors chars-per-pixel */
"32 32 8 1 ",
"  c #3E734E",
". c #407C52",
"X c #696A6A",
"o c #679647",
"O c #7AB055",
"+ c #4D9262",
"@ c #847E87",
"# c #9BADB7",
/* pixels */
"++++++++++++++++++++++++++++++++",
"++++++++++++++++++++++ +++++++++",
"+++++++++++++++++++++ + ++++++++",
"++++++++++++++++++++++ +++++++++",
"++++++++++++++++++++++++++++++++",
"++++++++++++++++++++++++++++++++",
"+++++++++++++++++O++++++++++++++",
"+++++++++++++++++OO+++++++++++++",
"++++++O++++++++++OO++O++++++++++",
"++++++O+++++++++##O OO++++++++++",
"++++++O+O++++##########+++++++++",
"++++++O+O+++###########+++++++++",
"++++++++O++###@@@####X@@++++++++",
"++++++++++#@@@@@@@@@@XX@@+++++++",
"++++++++++#@@@@@@@@@@XXX@@++++++",
"O++++++++#@@@@@@@@@@XXXXX@++++++",
"+O+++++####@@@@@@@@@XX##XX+++++O",
"O+++++#######@@X@@@@XX###@++++++",
"++++++#######XXX@@@@XX@@XX++++++",
"++++++###@@####X@@@XXX@@X#++++++",
"+++++#@@@X###X##X#@XXX@@##++++++",
"+++++@@@@X@@@X@##X@XX###@#++++++",
"+++++@@@@X@@@X@@XX@@@@XXXXX+++++",
"+++++@@@@X@@@@@@X@@@@@@XXXX+++++",
"+++++X@@XXX@@@@@@X@@@@@@XXX+++++",
"+++++XXX##XX@@@@@X###@@XXX.+++++",
"+++++.XX@##XX@@@@##@@X@XXo.+++++",
"++++++...@XXX@@@#@@XXXXX..++++++",
"++++++++.....XXXXXXX.....+++++++",
"+++++++++++..o........++++++++++",
"++++++++++++O+O+++++++++++++++++",
"+++++++++++++O++++++++++++++++++"
};
