/* XPM */
static char *_625230676969[] = {
/* columns rows colors chars-per-pixel */
"32 32 6 1 ",
"  c #3E734E",
". c #7AB055",
"X c #4D9262",
"o c #5B6EE1",
"O c #639BFF",
"+ c #5FCDE4",
/* pixels */
"OOOOOOOOOOOOOOOOOOOOOOOOOOOOOOOO",
"OOOOOOOOOOOOOOOOOOOOOOOOOOOOOOOO",
"OOOOOOOOOOOOOOOOOOOOOOOOOOOOOOOO",
"OOOOOOOOOOOOOOOOOOOOOOOOOOOOOOOO",
"OOOOOOOOOOOOOOOOOOOOOOOOOOOOOOOO",
"OOOOOOOOOOOOOOOOOOOOOOOOOOOOOOOO",
"OOOOOOOOOOOOOOOOOOOOOOOOOOOOOOOO",
"OOOOOOOOOOOOOOOOOOOOOOOOOOOOOOOO",
"OOOOOOOOOOOOOOOOOOOOOOOOOOOOOOOO",
"OOOOOOOOOOOOOOOOOOOOOOOOOOOOOOOO",
"OOOOOOOOOOOOOOOOOOOOOOOOOOOOOOOO",
"OOOOOOOOOOOOOOOOOOOOOOOOOOOOOOOO",
"OO++++++++OOOOOOOOOOOOOOOOOOOOOO",
"++++++++o++++O+++++OOOOOOOOOOOOO",
"++ooo+ooXo+++++++++oOOOOOOOOOOOO",
"ooXXXoXXXXooo++oo++ooOOOOOOOOOOO",
"XXXXXXXXXXXXXooXo++ooOOOOOOOOOOO",
"XXXXXXXXXXXXXXXX o+ooOOOOOOOOOOO",
"XXXXXXXXXXXXXXXX o+ooOOOOOOOOOOO",
"XXXXXXXX.XXXXXX o+++ooOOOOOOOOOO",
"XXXXXX.X.XXXXXX o++ooOOOOOOOOOOO",
"XXXXXX.X.XXXXXX o++ooOOOOOOOOOOO",
"XXXXXX.XXXXXXXX o++ooOOOOOOOOOOO",
"XXXXXX.XXXXXXXX o++ooOOOOOOOOOOO",
"XXXXXXXXXXXXXXX o+++ooOOOOOOOOOO",
"XXXXXXXXXXXXXXXX o++ooOOOOOOOOOO",
"XXXXXXXXXXXXXXXX o++ooOOOOOOOOOO",
"XXXXXXXXXXXXXXXX o++ooOOOOOOOOOO",
"XXXXXXXXXXXXXXX o++ooOOOOOOOOOOO",
"XXXXXXXXXXXXXXX o++ooOOOOOOOOOOO",
"XXXXXXXXXXXXXXX o++ooOOOOOOOOOOO",
"XXXXXXXXXXXXXXX o++ooOOOOOOOOOOO"
};
