/* XPM */
static char *result[] = {
/* columns rows colors chars-per-pixel */
"32 32 6 1 ",
"  c #3E734E",
". c #7AB055",
"X c #4D9262",
"o c #5B6EE1",
"O c #639BFF",
"+ c #5FCDE4",
/* pixels */
"OOOOOOOOOOOOOOOOOOOOOOOOOOOOOOOO",
"OOOOOOOOOOOOOOOOOOOOOOOOOOOOOOOO",
"OOOOOOOOOOOOOOOOOOOOOOOOOOOOOOOO",
"OOOOOOOOOOOOOOOOOOOOOOOOOOOOOOOO",
"OOOOOOOOOOOOOOOOOOOOOOOOOOOOOOOO",
"OOOOOOOOOOOOOOOOOOOOOOOOOOOOOOOO",
"OOOOOOOOOOOOOOOOOOOOOOOOOOOOOOOO",
"OOOOOOOOOOOOOOOOOOOOOOOOOOOOOOOO",
"OOOOOOOOOOOOOOOOOOOOOOOOOOOOOOOO",
"OOOOOOOOOOOOOOOOOOOOOOOOOOOOOOOO",
"OOOOOOOOOOOOOOOOOOOOOOOOOOOOOOOO",
"OOOOOOOOOOOOOOOOOOOOOOOOOOOOOOOO",
"OOOOOOOOOOOOOOOOOOOOOOOOO+++OOOO",
"OOOOOOOOOOOOOO++++++++++++++++++",
"OOOOOOOOOOOOo++++oo++++++ooo++++",
"OOOOOOOOOOOoo++ooXXooooooXXXoooo",
"OOOOOOOOOOOoo++o XXXXXXXXXXXXXXX",
"OOOOOOOOOOOoo+++o XXXXXXXXXXXXXX",
"OOOOOOOOOOOOoo++o XXXXXXXXXXXXXX",
"OOOOOOOOOOOOoo+o XXXXXXXXXXXXXXX",
"OOOOOOOOOOOoo++o XXXXXXXXXXXXXXX",
"OOOOOOOOOOOoo++o XXXXXXXXXXXXXXX",
"OOOOOOOOOOoo++o XXXXXXXXXXXXXXXX",
"OOOOOOOOOOoo+o XXXXXXXXXXXXXXXXX",
"OOOOOOOOOOoo++o XXXXX.XXXXXXXXXX",
"OOOOOOOOOOoo++o XXXXX.XXXXXXXXXX",
"OOOOOOOOOOOoo++o XX.X.XXXXXXXXXX",
"OOOOOOOOOOoo++o XXX.X.XXXXXXXXXX",
"OOOOOOOOOOoo++o XXX.XXXXXXXXXXXX",
"OOOOOOOOOOoo++o XXXXXXXXXXXXXXXX",
"OOOOOOOOOOOoo++o XXXXXXXXXXXXXXX",
"OOOOOOOOOOOoo++o XXXXXXXXXXXXXXX"
};
